<?xml version="1.0" encoding="UTF-8"?>
<svg version="1.1" xmlns="http://www.w3.org/2000/svg" width="612" height="407">
<path d="M0 0 C0.99 0.33 1.98 0.66 3 1 C3 1.99 3 2.98 3 4 C3.66 4.33 4.32 4.66 5 5 C5 5.66 5 6.32 5 7 C5.66 7 6.32 7 7 7 C7.53625 7.598125 8.0725 8.19625 8.625 8.8125 C14.13263916 13.88532554 20.98405641 14.49132849 28.140625 14.6875 C29.03396545 14.72093506 29.92730591 14.75437012 30.84771729 14.78881836 C43.80883694 15.21056756 56.78439372 15.06874832 69.75 15 C74.89062242 14.97347916 80.03121052 14.95353499 85.171875 14.9375 C86.34764099 14.92920166 87.52340698 14.92090332 88.73480225 14.91235352 C89.80812805 14.90905029 90.88145386 14.90574707 91.98730469 14.90234375 C92.93434265 14.89710693 93.88138062 14.89187012 94.8571167 14.88647461 C97 15 97 15 98 16 C98.09899523 17.54955559 98.13079524 19.10353673 98.1328125 20.65625 C98.13410156 21.59597656 98.13539063 22.53570312 98.13671875 23.50390625 C98.13285156 24.49261719 98.12898438 25.48132813 98.125 26.5 C98.12886719 27.48871094 98.13273437 28.47742188 98.13671875 29.49609375 C98.13542969 30.43582031 98.13414062 31.37554687 98.1328125 32.34375 C98.13168457 33.21193359 98.13055664 34.08011719 98.12939453 34.97460938 C98 37 98 37 97 38 C93.96799004 38.13024618 90.97030975 38.19026741 87.9375 38.1875 C87.03588135 38.18669434 86.1342627 38.18588867 85.20532227 38.18505859 C72.59697224 38.07162014 59.00464747 37.00154916 47 33 C45.64756206 32.7206621 44.29315957 32.45075876 42.9375 32.1875 C38.56556661 31.23800393 34.61079797 29.73742937 30.4921875 28.01171875 C27.37795239 26.74747597 24.2134172 25.71638547 21.0078125 24.7109375 C18.90282193 23.96559064 16.97574588 23.0366021 15 22 C14.67 22.66 14.34 23.32 14 24 C16.36292656 26.52588702 17.66462511 27.88820837 21 29 C21 29.66 21 30.32 21 31 C21.99 31 22.98 31 24 31 C24 31.66 24 32.32 24 33 C24.763125 33.20625 25.52625 33.4125 26.3125 33.625 C33.8569112 36.43817028 41.4502653 39.39342565 45 47 C45 47.99 45 48.98 45 50 C44.01 50 43.02 50 42 50 C42 49.01 42 48.02 42 47 C39.03 46.01 36.06 45.02 33 44 C33.16371094 45.0828125 33.32742187 46.165625 33.49609375 47.28125 C34.17178024 52.68674192 34.1088986 58.06065617 34.0625 63.5 C34.05798828 64.51320313 34.05347656 65.52640625 34.04882812 66.5703125 C34.03714593 69.04693827 34.02076582 71.52343657 34 74 C34.72805344 73.99777939 35.45610687 73.99555878 36.20622253 73.99327087 C43.07710036 73.97320987 49.9479738 73.95799624 56.81887341 73.94818783 C60.35102274 73.94297567 63.88314782 73.93590836 67.4152832 73.92456055 C71.47868072 73.91158805 75.54205286 73.906758 79.60546875 73.90234375 C80.8702153 73.89718246 82.13496185 73.89202118 83.43803406 73.88670349 C84.61888077 73.88662796 85.79972748 73.88655243 87.01635742 73.88647461 C88.05338303 73.884254 89.09040863 73.88203339 90.15885925 73.87974548 C92.87950872 73.99490007 95.35156042 74.38597624 98 75 C98.02887512 78.64581687 98.04675585 82.29160463 98.0625 85.9375 C98.07087891 86.97841797 98.07925781 88.01933594 98.08789062 89.09179688 C98.09111328 90.08115234 98.09433594 91.07050781 98.09765625 92.08984375 C98.10289307 93.00628662 98.10812988 93.92272949 98.11352539 94.86694336 C98 97 98 97 97 98 C95.03630847 98.0940067 93.06920801 98.11743381 91.10327148 98.11352539 C89.82432007 98.11340454 88.54536865 98.11328369 87.22766113 98.11315918 C85.85880485 98.10812271 84.48994904 98.10295607 83.12109375 98.09765625 C81.88363403 98.09664917 80.64617432 98.09564209 79.37121582 98.09460449 C74.72663452 98.08935285 70.08206638 98.07539175 65.4375 98.0625 C55.063125 98.041875 44.68875 98.02125 34 98 C34 121.76 34 145.52 34 170 C31.52657832 171.23671084 29.86140689 171.12931819 27.09765625 171.1328125 C26.12505859 171.13410156 25.15246094 171.13539063 24.15039062 171.13671875 C22.62188477 171.13091797 22.62188477 171.13091797 21.0625 171.125 C19.53979492 171.13080078 19.53979492 171.13080078 17.98632812 171.13671875 C17.01244141 171.13542969 16.03855469 171.13414062 15.03515625 171.1328125 C13.69529663 171.13112061 13.69529663 171.13112061 12.32836914 171.12939453 C10 171 10 171 7 170 C7 120.17 7 70.34 7 19 C7.99 18.67 8.98 18.34 10 18 C9.44570312 17.46890625 8.89140625 16.9378125 8.3203125 16.390625 C7.59585938 15.68421875 6.87140625 14.9778125 6.125 14.25 C5.40570313 13.55390625 4.68640625 12.8578125 3.9453125 12.140625 C0.31171776 8.14221151 -0.24410817 5.37037975 0 0 Z M10 20 C11 22 11 22 11 22 Z " fill="#EDEEEE" transform="translate(185,115)"/>
<path d="M0 0 C8.91 0 17.82 0 27 0 C32.62195846 11.24391691 32.62195846 11.24391691 34.21875 15.13671875 C34.77139526 16.47416138 34.77139526 16.47416138 35.33520508 17.83862305 C35.7195874 18.77875244 36.10396973 19.71888184 36.5 20.6875 C37.3679353 22.79189536 38.23645598 24.89604936 39.10546875 27 C39.56743652 28.12019531 40.0294043 29.24039063 40.50537109 30.39453125 C42.11139109 34.26870688 43.73451753 38.13534815 45.36328125 42 C45.64948334 42.6796431 45.93568542 43.35928619 46.2305603 44.05952454 C47.36512325 46.7534976 48.49972544 49.44744808 49.63769531 52.13998413 C52.88196278 59.81876213 56.02048192 67.52573908 58.97119141 75.32299805 C59.78599111 77.44314012 60.66344433 79.53919083 61.5625 81.625 C63.21883113 85.51377743 64.63137698 89.46338765 66.03515625 93.44921875 C66.89638506 95.72607062 67.86632272 97.84853244 69 100 C70.92533344 96.36937122 72.38410281 92.57231605 73.875 88.75 C77.02060324 80.76347293 77.02060324 80.76347293 79 77.0625 C81.28134249 72.70635631 82.88132339 68.09308485 84.57592773 63.48779297 C88.15715316 53.79426723 92.01801711 44.18525357 96.375 34.8125 C99.42595788 28.2427707 102.0877437 21.50874434 104.79052734 14.7902832 C109.9368454 2.0631546 109.9368454 2.0631546 112 0 C113.3330177 -0.09875585 114.6711432 -0.13079205 116.0078125 -0.1328125 C116.83023438 -0.13410156 117.65265625 -0.13539063 118.5 -0.13671875 C119.36625 -0.13285156 120.2325 -0.12898437 121.125 -0.125 C122.38957031 -0.13080078 122.38957031 -0.13080078 123.6796875 -0.13671875 C128.5596307 -0.1291412 133.18899782 0.17860938 138 1 C136.30556586 7.86691728 133.47878979 14.20414562 130.6875 20.6875 C129.73275399 22.92043658 128.77832536 25.15350889 127.82421875 27.38671875 C127.11821533 29.03486572 127.11821533 29.03486572 126.39794922 30.71630859 C125.03626882 33.91480692 123.69590119 37.1213305 122.36328125 40.33203125 C120.46084136 44.91214679 118.50674339 49.46479556 116.5 54 C113.96551796 59.75755466 111.51013102 65.54225608 109.10546875 71.35546875 C107.8390198 74.38510104 106.51426212 77.38409039 105.16796875 80.37890625 C104.20102101 82.54887928 103.24756706 84.72354578 102.30078125 86.90234375 C101.99446777 87.60649414 101.6881543 88.31064453 101.37255859 89.03613281 C100.76356886 90.43728621 100.15576085 91.83895401 99.54931641 93.24121094 C98.71148974 95.16636933 97.85886507 97.08414818 97 99 C96.49597656 100.13050781 95.99195313 101.26101562 95.47265625 102.42578125 C94 105 94 105 91 106 C74.14676653 107.91086848 54.78599503 100.39299751 40 93 C40 92.34 40 91.68 40 91 C39.01 91 38.02 91 37 91 C37 90.34 37 89.68 37 89 C36.01 89 35.02 89 34 89 C34 88.34 34 87.68 34 87 C33.40703125 86.91621094 32.8140625 86.83242187 32.203125 86.74609375 C29.35515282 85.7816209 28.48547151 84.48602461 26.75 82.0625 C26.22921875 81.35222656 25.7084375 80.64195312 25.171875 79.91015625 C24 78 24 78 24 76 C23.34 75.67 22.68 75.34 22 75 C22 73.68 22 72.36 22 71 C23.875 71.25 23.875 71.25 26 72 C27.0625 73.9375 27.0625 73.9375 28 76 C29.485 76.99 29.485 76.99 31 78 C30.54736457 73.47364566 29.229724 70.21452683 27.13720703 66.27026367 C26.06272246 64.12521601 25.16988731 61.99179089 24.30859375 59.75390625 C21.36866658 52.31065408 18.09999675 45.01034409 14.875 37.6875 C13.92320269 35.52386334 12.9718928 33.36001554 12.02151489 31.195755 C11.43473857 29.85974139 10.84712174 28.52409649 10.2585144 27.18888855 C7.86555578 21.74433277 5.82541988 16.91550916 5 11 C4.34 11 3.68 11 3 11 C2.49632243 9.54293274 1.99717444 8.08429904 1.5 6.625 C1.2215625 5.81289062 0.943125 5.00078125 0.65625 4.1640625 C0 2 0 2 0 0 Z " fill="#EBEBEB" transform="translate(289,130)"/>
<path d="M0 0 C3.465 1.485 3.465 1.485 7 3 C7 3.66 7 4.32 7 5 C8.20849609 5.37898437 8.20849609 5.37898437 9.44140625 5.765625 C13.69523303 7.24115657 17.80025449 8.97826873 21.9375 10.75 C27.34427977 13.0529264 32.75611446 15.3201585 38.23339844 17.45043945 C55.5231241 24.18736276 55.5231241 24.18736276 60 31 C59.67 31.66 59.34 32.32 59 33 C56 32 56 32 54.25 30.5625 C51.33635765 28.53913726 48.4179154 27.85447885 45 27 C42.48525429 31.94277606 40.15307951 36.88643618 38 42 C37.35492259 43.41701104 36.70903774 44.83365467 36.0625 46.25 C34.09761776 50.6147384 32.53452738 55.07623081 31.02734375 59.6171875 C29.9897585 62.02375404 28.97338372 63.31172271 27 65 C23.63534026 61.15317718 21.98022861 56.60618035 20.0625 51.9375 C19.70768555 51.08567139 19.35287109 50.23384277 18.98730469 49.35620117 C16.79453735 44.05331512 14.76035988 38.71728465 12.875 33.296875 C11.98109086 30.95036351 10.91752404 28.7840388 9.75 26.5625 C8 23 8 23 8 19 C7.34 19 6.68 19 6 19 C5.60167969 17.89591797 5.60167969 17.89591797 5.1953125 16.76953125 C4.84210938 15.79371094 4.48890625 14.81789062 4.125 13.8125 C3.60292969 12.36810547 3.60292969 12.36810547 3.0703125 10.89453125 C2.37780966 9.02174072 1.64562863 7.16295037 0.8671875 5.32421875 C0 3 0 3 0 0 Z " fill="#E8E9E9" transform="translate(331,226)"/>
<path d="M0 0 C2.86314093 1.38818954 4.23065505 3.44850168 6.0625 6 C5.7325 6.66 5.4025 7.32 5.0625 8 C2.10294339 7.01348113 0.51958131 5.84281098 -1.9375 4 C-2.9275 3.67 -3.9175 3.34 -4.9375 3 C-2.5375 0 -2.5375 0 0 0 Z " fill="#A7A8A9" transform="translate(384.9375,251)"/>
<path d="M0 0 C1.875 0.1875 1.875 0.1875 4 1 C5.25 3.5625 5.25 3.5625 6 6 C5.01 6.99 4.02 7.98 3 9 C2.87625 8.360625 2.7525 7.72125 2.625 7.0625 C2.315625 6.0415625 2.315625 6.0415625 2 5 C1.34 4.67 0.68 4.34 0 4 C0 2.68 0 1.36 0 0 Z " fill="#A9AAAB" transform="translate(311,201)"/>
<path d="M0 0 C0.66 0 1.32 0 2 0 C6 5.29411765 6 5.29411765 6 9 C5.01 9 4.02 9 3 9 C3 8.01 3 7.02 3 6 C1.68 5.34 0.36 4.68 -1 4 C-0.34 4 0.32 4 1 4 C0.67 2.68 0.34 1.36 0 0 Z " fill="#9D9E9F" transform="translate(224,156)"/>
<path d="M0 0 C0.99 0.33 1.98 0.66 3 1 C3 1.99 3 2.98 3 4 C3.66 4.33 4.32 4.66 5 5 C4.67 5.66 4.34 6.32 4 7 C3.34 6.67 2.68 6.34 2 6 C1.67 6.66 1.34 7.32 1 8 C0 1.125 0 1.125 0 0 Z " fill="#868788" transform="translate(185,115)"/>
<path d="M0 0 C2.89932357 2.39509338 3.50168276 4.31245243 4 8 C2.35 6.68 0.7 5.36 -1 4 C-0.67 2.68 -0.34 1.36 0 0 Z " fill="#2E2E2E" transform="translate(321,206)"/>
</svg>
